{
	"asset":{
		"generator":"Khronos glTF Blender I/O v3.6.27",
		"version":"2.0"
	},
	"scene":0,
	"scenes":[
		{
			"name":"Scene",
			"nodes":[
				0,
				1,
				2,
				3,
				4,
				5,
				6,
				7,
				8,
				9,
				10,
				11,
				12,
				13,
				14
			]
		}
	],
	"nodes":[
		{
			"mesh":0,
			"name":"Cube",
			"scale":[
				98.63189697265625,
				72.92988586425781,
				162.82284545898438
			],
			"translation":[
				0,
				92.13041687011719,
				-60.258419036865234
			]
		},
		{
			"mesh":1,
			"name":"Back mountains",
			"rotation":[
				0.7071068286895752,
				0,
				0,
				0.7071068286895752
			],
			"scale":[
				100,
				1,
				35
			],
			"translation":[
				0,
				83.07229614257812,
				-151.0762939453125
			]
		},
		{
			"mesh":2,
			"name":"mountains 2",
			"rotation":[
				0.7071068286895752,
				0,
				0,
				0.7071068286895752
			],
			"scale":[
				100,
				1,
				35
			],
			"translation":[
				0,
				70.95451354980469,
				-102.3179702758789
			]
		},
		{
			"mesh":3,
			"name":"mountains 3",
			"rotation":[
				0.7071068286895752,
				0,
				0,
				0.7071068286895752
			],
			"scale":[
				100,
				1,
				35
			],
			"translation":[
				0,
				63.92620086669922,
				-70.37541198730469
			]
		},
		{
			"mesh":4,
			"name":"mountains 4",
			"rotation":[
				0.7071068286895752,
				0,
				0,
				0.7071068286895752
			],
			"scale":[
				100,
				1,
				38.02458190917969
			],
			"translation":[
				0,
				67.73560333251953,
				-29.480449676513672
			]
		},
		{
			"mesh":5,
			"name":"mountains 5",
			"rotation":[
				0.7071068286895752,
				0,
				0,
				0.7071068286895752
			],
			"scale":[
				100,
				1,
				27.21531867980957
			],
			"translation":[
				0,
				57.051300048828125,
				28.514598846435547
			]
		},
		{
			"mesh":6,
			"name":"Plane.006",
			"rotation":[
				0.7071068286895752,
				0,
				0,
				0.7071068286895752
			],
			"scale":[
				100,
				1,
				50.29989242553711
			],
			"translation":[
				0,
				70.49679565429688,
				82.85189056396484
			]
		},
		{
			"mesh":7,
			"name":"back trees 1",
			"rotation":[
				0.7071068286895752,
				0,
				0,
				0.7071068286895752
			],
			"scale":[
				5.6679792404174805,
				10.944173812866211,
				8.700956344604492
			],
			"translation":[
				-29.107816696166992,
				111.58744049072266,
				-146.66554260253906
			]
		},
		{
			"mesh":8,
			"name":"back trees 2",
			"rotation":[
				0.7071068286895752,
				0,
				0,
				0.7071068286895752
			],
			"scale":[
				5.6679792404174805,
				10.944173812866211,
				8.700956344604492
			],
			"translation":[
				73.74656677246094,
				116.5394515991211,
				-146.66554260253906
			]
		},
		{
			"mesh":9,
			"name":"trees 2",
			"rotation":[
				0.7071068286895752,
				0,
				0,
				0.7071068286895752
			],
			"scale":[
				5.6679792404174805,
				10.944173812866211,
				10.944173812866211
			],
			"translation":[
				93.19515228271484,
				80.09803009033203,
				-101.63404083251953
			]
		},
		{
			"mesh":10,
			"name":"trees 3",
			"rotation":[
				0.7071068286895752,
				0,
				0,
				0.7071068286895752
			],
			"scale":[
				8.646357536315918,
				16.695056915283203,
				16.695056915283203
			],
			"translation":[
				-75.3172836303711,
				55.93624496459961,
				-68.68020629882812
			]
		},
		{
			"mesh":11,
			"name":"trees 4",
			"rotation":[
				0.7071068286895752,
				0,
				0,
				0.7071068286895752
			],
			"scale":[
				12.302593231201172,
				23.75480079650879,
				23.75480079650879
			],
			"translation":[
				-13.060983657836914,
				71.34196472167969,
				-27.416004180908203
			]
		},
		{
			"mesh":12,
			"name":"trees 5",
			"rotation":[
				0.7071068286895752,
				0,
				0,
				0.7071068286895752
			],
			"scale":[
				12.291621208190918,
				23.733613967895508,
				23.733613967895508
			],
			"translation":[
				11.991283416748047,
				64.71895599365234,
				31.394474029541016
			]
		},
		{
			"mesh":13,
			"name":"Cylinder",
			"rotation":[
				0.7071068286895752,
				0,
				0,
				0.7071068286895752
			],
			"scale":[
				8.135058403015137,
				8.135058403015137,
				8.135058403015137
			],
			"translation":[
				161.5068359375,
				143.2220458984375,
				-191.50979614257812
			]
		},
		{
			"mesh":14,
			"name":"Cylinder.001",
			"rotation":[
				0.7071068286895752,
				0,
				0,
				0.7071068286895752
			],
			"scale":[
				8.135058403015137,
				8.135058403015137,
				8.135058403015137
			],
			"translation":[
				132.14205932617188,
				143.2220458984375,
				-191.50979614257812
			]
		}
	],
	"meshes":[
		{
			"name":"Cube.001",
			"primitives":[
				{
					"attributes":{
						"POSITION":0,
						"NORMAL":1,
						"TEXCOORD_0":2
					},
					"indices":3
				}
			]
		},
		{
			"name":"Plane.001",
			"primitives":[
				{
					"attributes":{
						"POSITION":4,
						"NORMAL":5,
						"TEXCOORD_0":6
					},
					"indices":7
				}
			]
		},
		{
			"name":"Plane.002",
			"primitives":[
				{
					"attributes":{
						"POSITION":8,
						"NORMAL":9,
						"TEXCOORD_0":10
					},
					"indices":11
				}
			]
		},
		{
			"name":"Plane.003",
			"primitives":[
				{
					"attributes":{
						"POSITION":12,
						"NORMAL":13,
						"TEXCOORD_0":14
					},
					"indices":11
				}
			]
		},
		{
			"name":"Plane.004",
			"primitives":[
				{
					"attributes":{
						"POSITION":15,
						"NORMAL":16,
						"TEXCOORD_0":17
					},
					"indices":11
				}
			]
		},
		{
			"name":"Plane.005",
			"primitives":[
				{
					"attributes":{
						"POSITION":18,
						"NORMAL":19,
						"TEXCOORD_0":20
					},
					"indices":11
				}
			]
		},
		{
			"name":"Plane.006",
			"primitives":[
				{
					"attributes":{
						"POSITION":21,
						"NORMAL":22,
						"TEXCOORD_0":23
					},
					"indices":11
				}
			]
		},
		{
			"name":"Plane.066",
			"primitives":[
				{
					"attributes":{
						"POSITION":24,
						"NORMAL":25,
						"TEXCOORD_0":26
					},
					"indices":27
				}
			]
		},
		{
			"name":"Plane.085",
			"primitives":[
				{
					"attributes":{
						"POSITION":28,
						"NORMAL":29,
						"TEXCOORD_0":30
					},
					"indices":31
				}
			]
		},
		{
			"name":"Plane.153",
			"primitives":[
				{
					"attributes":{
						"POSITION":32,
						"NORMAL":33,
						"TEXCOORD_0":34
					},
					"indices":35
				}
			]
		},
		{
			"name":"Plane.190",
			"primitives":[
				{
					"attributes":{
						"POSITION":36,
						"NORMAL":37,
						"TEXCOORD_0":38
					},
					"indices":39
				}
			]
		},
		{
			"name":"Plane.196",
			"primitives":[
				{
					"attributes":{
						"POSITION":40,
						"NORMAL":41,
						"TEXCOORD_0":42
					},
					"indices":43
				}
			]
		},
		{
			"name":"Plane.211",
			"primitives":[
				{
					"attributes":{
						"POSITION":44,
						"NORMAL":45,
						"TEXCOORD_0":46
					},
					"indices":47
				}
			]
		},
		{
			"name":"Cylinder",
			"primitives":[
				{
					"attributes":{
						"POSITION":48,
						"NORMAL":49,
						"TEXCOORD_0":50
					},
					"indices":51
				}
			]
		},
		{
			"name":"Cylinder.001",
			"primitives":[
				{
					"attributes":{
						"POSITION":52,
						"NORMAL":53,
						"TEXCOORD_0":54
					},
					"indices":55
				}
			]
		}
	],
	"accessors":[
		{
			"bufferView":0,
			"componentType":5126,
			"count":20,
			"max":[
				1,
				1,
				1
			],
			"min":[
				-1,
				-1,
				-1
			],
			"type":"VEC3"
		},
		{
			"bufferView":1,
			"componentType":5126,
			"count":20,
			"type":"VEC3"
		},
		{
			"bufferView":2,
			"componentType":5126,
			"count":20,
			"type":"VEC2"
		},
		{
			"bufferView":3,
			"componentType":5123,
			"count":30,
			"type":"SCALAR"
		},
		{
			"bufferView":4,
			"componentType":5126,
			"count":61,
			"max":[
				1,
				0.4554905891418457,
				1
			],
			"min":[
				-1,
				0,
				-1.1641193628311157
			],
			"type":"VEC3"
		},
		{
			"bufferView":5,
			"componentType":5126,
			"count":61,
			"type":"VEC3"
		},
		{
			"bufferView":6,
			"componentType":5126,
			"count":61,
			"type":"VEC2"
		},
		{
			"bufferView":7,
			"componentType":5123,
			"count":192,
			"type":"SCALAR"
		},
		{
			"bufferView":8,
			"componentType":5126,
			"count":34,
			"max":[
				1,
				2.386966116318945e-06,
				1
			],
			"min":[
				-1,
				0,
				-0.7022125720977783
			],
			"type":"VEC3"
		},
		{
			"bufferView":9,
			"componentType":5126,
			"count":34,
			"type":"VEC3"
		},
		{
			"bufferView":10,
			"componentType":5126,
			"count":34,
			"type":"VEC2"
		},
		{
			"bufferView":11,
			"componentType":5123,
			"count":96,
			"type":"SCALAR"
		},
		{
			"bufferView":12,
			"componentType":5126,
			"count":34,
			"max":[
				1,
				2.6271234219166217e-06,
				1
			],
			"min":[
				-1,
				0,
				-0.10032743215560913
			],
			"type":"VEC3"
		},
		{
			"bufferView":13,
			"componentType":5126,
			"count":34,
			"type":"VEC3"
		},
		{
			"bufferView":14,
			"componentType":5126,
			"count":34,
			"type":"VEC2"
		},
		{
			"bufferView":15,
			"componentType":5126,
			"count":34,
			"max":[
				1,
				2.7089138256997103e-06,
				1
			],
			"min":[
				-1,
				0,
				0.4607357978820801
			],
			"type":"VEC3"
		},
		{
			"bufferView":16,
			"componentType":5126,
			"count":34,
			"type":"VEC3"
		},
		{
			"bufferView":17,
			"componentType":5126,
			"count":34,
			"type":"VEC2"
		},
		{
			"bufferView":18,
			"componentType":5126,
			"count":34,
			"max":[
				1,
				2.7089138256997103e-06,
				1.4119102954864502
			],
			"min":[
				-1,
				4.900163617094222e-07,
				0.4607357978820801
			],
			"type":"VEC3"
		},
		{
			"bufferView":19,
			"componentType":5126,
			"count":34,
			"type":"VEC3"
		},
		{
			"bufferView":20,
			"componentType":5126,
			"count":34,
			"type":"VEC2"
		},
		{
			"bufferView":21,
			"componentType":5126,
			"count":34,
			"max":[
				1,
				2.7089138256997103e-06,
				1
			],
			"min":[
				-1,
				0,
				0.4607357978820801
			],
			"type":"VEC3"
		},
		{
			"bufferView":22,
			"componentType":5126,
			"count":34,
			"type":"VEC3"
		},
		{
			"bufferView":23,
			"componentType":5126,
			"count":34,
			"type":"VEC2"
		},
		{
			"bufferView":24,
			"componentType":5126,
			"count":4818,
			"max":[
				0.8126677870750427,
				3.1334376870972847e-08,
				1.8912198543548584
			],
			"min":[
				-12.88383674621582,
				-0.060000479221343994,
				-0.33837151527404785
			],
			"type":"VEC3"
		},
		{
			"bufferView":25,
			"componentType":5126,
			"count":4818,
			"type":"VEC3"
		},
		{
			"bufferView":26,
			"componentType":5126,
			"count":4818,
			"type":"VEC2"
		},
		{
			"bufferView":27,
			"componentType":5123,
			"count":13578,
			"type":"SCALAR"
		},
		{
			"bufferView":28,
			"componentType":5126,
			"count":6465,
			"max":[
				5.056842803955078,
				3.1334376870972847e-08,
				3.8449783325195312
			],
			"min":[
				-11.368692398071289,
				-0.060000479221343994,
				-0.4671499729156494
			],
			"type":"VEC3"
		},
		{
			"bufferView":29,
			"componentType":5126,
			"count":6465,
			"type":"VEC3"
		},
		{
			"bufferView":30,
			"componentType":5126,
			"count":6465,
			"type":"VEC2"
		},
		{
			"bufferView":31,
			"componentType":5123,
			"count":18144,
			"type":"SCALAR"
		},
		{
			"bufferView":32,
			"componentType":5126,
			"count":13800,
			"max":[
				1.5239238739013672,
				3.1334376870972847e-08,
				2.604998826980591
			],
			"min":[
				-34.445030212402344,
				-0.060000479221343994,
				-2.048712968826294
			],
			"type":"VEC3"
		},
		{
			"bufferView":33,
			"componentType":5126,
			"count":13800,
			"type":"VEC3"
		},
		{
			"bufferView":34,
			"componentType":5126,
			"count":13800,
			"type":"VEC2"
		},
		{
			"bufferView":35,
			"componentType":5123,
			"count":38880,
			"type":"SCALAR"
		},
		{
			"bufferView":36,
			"componentType":5126,
			"count":8050,
			"max":[
				20.29541778564453,
				3.1334376870972847e-08,
				1.0689913034439087
			],
			"min":[
				-2.8375396728515625,
				-0.06000000238418579,
				-1.743746042251587
			],
			"type":"VEC3"
		},
		{
			"bufferView":37,
			"componentType":5126,
			"count":8050,
			"type":"VEC3"
		},
		{
			"bufferView":38,
			"componentType":5126,
			"count":8050,
			"type":"VEC2"
		},
		{
			"bufferView":39,
			"componentType":5123,
			"count":22680,
			"type":"SCALAR"
		},
		{
			"bufferView":40,
			"componentType":5126,
			"count":2990,
			"max":[
				9.917679786682129,
				3.1334376870972847e-08,
				1.484882116317749
			],
			"min":[
				-6.9919047355651855,
				-0.06000003218650818,
				-0.3242810368537903
			],
			"type":"VEC3"
		},
		{
			"bufferView":41,
			"componentType":5126,
			"count":2990,
			"type":"VEC3"
		},
		{
			"bufferView":42,
			"componentType":5126,
			"count":2990,
			"type":"VEC2"
		},
		{
			"bufferView":43,
			"componentType":5123,
			"count":8424,
			"type":"SCALAR"
		},
		{
			"bufferView":44,
			"componentType":5126,
			"count":2760,
			"max":[
				7.106747627258301,
				2.697529453143943e-07,
				1.2426573038101196
			],
			"min":[
				-8.988723754882812,
				-0.06000000238418579,
				-0.40315568447113037
			],
			"type":"VEC3"
		},
		{
			"bufferView":45,
			"componentType":5126,
			"count":2760,
			"type":"VEC3"
		},
		{
			"bufferView":46,
			"componentType":5126,
			"count":2760,
			"type":"VEC2"
		},
		{
			"bufferView":47,
			"componentType":5123,
			"count":7776,
			"type":"SCALAR"
		},
		{
			"bufferView":48,
			"componentType":5126,
			"count":192,
			"max":[
				1,
				-0.7000604867935181,
				1.0000001192092896
			],
			"min":[
				-1,
				-1,
				-1
			],
			"type":"VEC3"
		},
		{
			"bufferView":49,
			"componentType":5126,
			"count":192,
			"type":"VEC3"
		},
		{
			"bufferView":50,
			"componentType":5126,
			"count":192,
			"type":"VEC2"
		},
		{
			"bufferView":51,
			"componentType":5123,
			"count":372,
			"type":"SCALAR"
		},
		{
			"bufferView":52,
			"componentType":5126,
			"count":282,
			"max":[
				1,
				-0.7000604867935181,
				1.0000001192092896
			],
			"min":[
				-0.7071067690849304,
				-1,
				-1
			],
			"type":"VEC3"
		},
		{
			"bufferView":53,
			"componentType":5126,
			"count":282,
			"type":"VEC3"
		},
		{
			"bufferView":54,
			"componentType":5126,
			"count":282,
			"type":"VEC2"
		},
		{
			"bufferView":55,
			"componentType":5123,
			"count":582,
			"type":"SCALAR"
		}
	],
	"bufferViews":[
		{
			"buffer":0,
			"byteLength":240,
			"byteOffset":0,
			"target":34962
		},
		{
			"buffer":0,
			"byteLength":240,
			"byteOffset":240,
			"target":34962
		},
		{
			"buffer":0,
			"byteLength":160,
			"byteOffset":480,
			"target":34962
		},
		{
			"buffer":0,
			"byteLength":60,
			"byteOffset":640,
			"target":34963
		},
		{
			"buffer":0,
			"byteLength":732,
			"byteOffset":700,
			"target":34962
		},
		{
			"buffer":0,
			"byteLength":732,
			"byteOffset":1432,
			"target":34962
		},
		{
			"buffer":0,
			"byteLength":488,
			"byteOffset":2164,
			"target":34962
		},
		{
			"buffer":0,
			"byteLength":384,
			"byteOffset":2652,
			"target":34963
		},
		{
			"buffer":0,
			"byteLength":408,
			"byteOffset":3036,
			"target":34962
		},
		{
			"buffer":0,
			"byteLength":408,
			"byteOffset":3444,
			"target":34962
		},
		{
			"buffer":0,
			"byteLength":272,
			"byteOffset":3852,
			"target":34962
		},
		{
			"buffer":0,
			"byteLength":192,
			"byteOffset":4124,
			"target":34963
		},
		{
			"buffer":0,
			"byteLength":408,
			"byteOffset":4316,
			"target":34962
		},
		{
			"buffer":0,
			"byteLength":408,
			"byteOffset":4724,
			"target":34962
		},
		{
			"buffer":0,
			"byteLength":272,
			"byteOffset":5132,
			"target":34962
		},
		{
			"buffer":0,
			"byteLength":408,
			"byteOffset":5404,
			"target":34962
		},
		{
			"buffer":0,
			"byteLength":408,
			"byteOffset":5812,
			"target":34962
		},
		{
			"buffer":0,
			"byteLength":272,
			"byteOffset":6220,
			"target":34962
		},
		{
			"buffer":0,
			"byteLength":408,
			"byteOffset":6492,
			"target":34962
		},
		{
			"buffer":0,
			"byteLength":408,
			"byteOffset":6900,
			"target":34962
		},
		{
			"buffer":0,
			"byteLength":272,
			"byteOffset":7308,
			"target":34962
		},
		{
			"buffer":0,
			"byteLength":408,
			"byteOffset":7580,
			"target":34962
		},
		{
			"buffer":0,
			"byteLength":408,
			"byteOffset":7988,
			"target":34962
		},
		{
			"buffer":0,
			"byteLength":272,
			"byteOffset":8396,
			"target":34962
		},
		{
			"buffer":0,
			"byteLength":57816,
			"byteOffset":8668,
			"target":34962
		},
		{
			"buffer":0,
			"byteLength":57816,
			"byteOffset":66484,
			"target":34962
		},
		{
			"buffer":0,
			"byteLength":38544,
			"byteOffset":124300,
			"target":34962
		},
		{
			"buffer":0,
			"byteLength":27156,
			"byteOffset":162844,
			"target":34963
		},
		{
			"buffer":0,
			"byteLength":77580,
			"byteOffset":190000,
			"target":34962
		},
		{
			"buffer":0,
			"byteLength":77580,
			"byteOffset":267580,
			"target":34962
		},
		{
			"buffer":0,
			"byteLength":51720,
			"byteOffset":345160,
			"target":34962
		},
		{
			"buffer":0,
			"byteLength":36288,
			"byteOffset":396880,
			"target":34963
		},
		{
			"buffer":0,
			"byteLength":165600,
			"byteOffset":433168,
			"target":34962
		},
		{
			"buffer":0,
			"byteLength":165600,
			"byteOffset":598768,
			"target":34962
		},
		{
			"buffer":0,
			"byteLength":110400,
			"byteOffset":764368,
			"target":34962
		},
		{
			"buffer":0,
			"byteLength":77760,
			"byteOffset":874768,
			"target":34963
		},
		{
			"buffer":0,
			"byteLength":96600,
			"byteOffset":952528,
			"target":34962
		},
		{
			"buffer":0,
			"byteLength":96600,
			"byteOffset":1049128,
			"target":34962
		},
		{
			"buffer":0,
			"byteLength":64400,
			"byteOffset":1145728,
			"target":34962
		},
		{
			"buffer":0,
			"byteLength":45360,
			"byteOffset":1210128,
			"target":34963
		},
		{
			"buffer":0,
			"byteLength":35880,
			"byteOffset":1255488,
			"target":34962
		},
		{
			"buffer":0,
			"byteLength":35880,
			"byteOffset":1291368,
			"target":34962
		},
		{
			"buffer":0,
			"byteLength":23920,
			"byteOffset":1327248,
			"target":34962
		},
		{
			"buffer":0,
			"byteLength":16848,
			"byteOffset":1351168,
			"target":34963
		},
		{
			"buffer":0,
			"byteLength":33120,
			"byteOffset":1368016,
			"target":34962
		},
		{
			"buffer":0,
			"byteLength":33120,
			"byteOffset":1401136,
			"target":34962
		},
		{
			"buffer":0,
			"byteLength":22080,
			"byteOffset":1434256,
			"target":34962
		},
		{
			"buffer":0,
			"byteLength":15552,
			"byteOffset":1456336,
			"target":34963
		},
		{
			"buffer":0,
			"byteLength":2304,
			"byteOffset":1471888,
			"target":34962
		},
		{
			"buffer":0,
			"byteLength":2304,
			"byteOffset":1474192,
			"target":34962
		},
		{
			"buffer":0,
			"byteLength":1536,
			"byteOffset":1476496,
			"target":34962
		},
		{
			"buffer":0,
			"byteLength":744,
			"byteOffset":1478032,
			"target":34963
		},
		{
			"buffer":0,
			"byteLength":3384,
			"byteOffset":1478776,
			"target":34962
		},
		{
			"buffer":0,
			"byteLength":3384,
			"byteOffset":1482160,
			"target":34962
		},
		{
			"buffer":0,
			"byteLength":2256,
			"byteOffset":1485544,
			"target":34962
		},
		{
			"buffer":0,
			"byteLength":1164,
			"byteOffset":1487800,
			"target":34963
		}
	],
	"buffers":[
		{
			"byteLength":1488964,
			"uri":"data:application/octet-stream;base64,"
		}
	]
}
